/* XPM */
static char *_3fe013a1dba476cb3bee5b8bd8f9a18Nzh7EjkWYsf1S2Ld[] = {
/* columns rows colors chars-per-pixel */
"64 64 160 2 ",
"   c black",
".  c black",
"X  c #010101",
"o  c gray1",
"O  c #030405",
"+  c #040404",
"@  c gray2",
"#  c #040506",
"$  c #060606",
"%  c #181106",
"&  c #191206",
"*  c #191306",
"=  c #1A1306",
"-  c #1B1802",
";  c #1B1803",
":  c #1C1803",
">  c #1D1903",
",  c #1B1C00",
"<  c #1C1C00",
"1  c #1D1D00",
"2  c #1C1804",
"3  c #1D1904",
"4  c #1D170B",
"5  c #1E180B",
"6  c #1F180C",
"7  c #1D1D1D",
"8  c #1D1E1F",
"9  c gray12",
"0  c #30240C",
"q  c #342A09",
"w  c #343003",
"e  c #373700",
"r  c #373304",
"t  c #373407",
"y  c #352810",
"u  c #39351F",
"i  c #202020",
"p  c #252525",
"a  c #3A3A37",
"s  c #AA7D2B",
"d  c #AB7D2B",
"f  c #BE8B30",
"g  c #BF8B30",
"h  c #BF8C30",
"j  c #C4AC17",
"k  c #C4AA18",
"l  c #D7B91D",
"z  c #DBBE19",
"x  c #DBBE1A",
"c  c #DBBF1A",
"v  c #C2912D",
"b  c #C5942E",
"n  c #C6942F",
"m  c #C08C30",
"M  c #C18D31",
"N  c #D89D36",
"B  c #D89E36",
"V  c #D89F36",
"C  c #D99F37",
"Z  c #DA9F36",
"A  c #DCA433",
"S  c #DCA533",
"D  c #DDA633",
"F  c #DBA037",
"G  c #DBA434",
"H  c #DDA634",
"J  c #DFAB30",
"K  c #C4C400",
"L  c #DBDB00",
"P  c #DEDB03",
"I  c #DCDC00",
"U  c #DEDA04",
"Y  c #DCC01B",
"T  c #DEC11B",
"R  c #DEC21A",
"E  c #DFC21F",
"W  c #DFDF1B",
"Q  c #F5DC17",
"!  c #F5D51D",
"~  c #F8D71A",
"^  c #F8D71C",
"/  c #F8D71E",
"(  c #F5D81A",
")  c #F8DB19",
"_  c #F8DB1B",
"`  c #F8DC1A",
"'  c #F8DC1B",
"]  c #F8DF1B",
"[  c #F8D81C",
"{  c #FAD91C",
"}  c #F8D81E",
"|  c #F8D91E",
" . c #FAD91E",
".. c #FADA1E",
"X. c #FCDB1E",
"o. c #F8DC1F",
"O. c #F8F402",
"+. c #F8F403",
"@. c #F8F503",
"#. c #F8F007",
"$. c #F8F107",
"%. c #F8F404",
"&. c #FAF604",
"*. c #F8F800",
"=. c #FAFA00",
"-. c #FCFC00",
";. c #F8F804",
":. c #F8F20B",
">. c #F9F51E",
",. c #F9F51F",
"<. c #F9F91A",
"1. c #F9F91D",
"2. c #F9F91E",
"3. c #FBFB1E",
"4. c #DFC735",
"5. c #EEC923",
"6. c #F1CB23",
"7. c #F1CF20",
"8. c #F4D121",
"9. c #F4D221",
"0. c #F5D221",
"q. c #F6D321",
"w. c #F6DA38",
"e. c #F9DD38",
"r. c #F9DD3A",
"t. c #F9DD3B",
"y. c #F9DD3C",
"u. c #FBDF3C",
"i. c #F9F622",
"p. c #F9E036",
"a. c #F9E138",
"s. c #F9F935",
"d. c #F6DE52",
"f. c #FAE255",
"g. c #CACACA",
"h. c #CBCBCB",
"j. c #E4E1CD",
"k. c #FDFDC6",
"l. c #FDFDC7",
"z. c #FAF7CB",
"x. c #FEFECA",
"c. c #FEFACC",
"v. c #E4E1D0",
"b. c #FEF7D0",
"n. c #E1E2E3",
"m. c #E2E2E2",
"M. c gray89",
"N. c #E4E4E4",
"B. c #FEFEE1",
"V. c #FEFEE2",
"C. c #FEFFE2",
"Z. c #FEFEE3",
"A. c #FEFBE6",
"S. c #FEFBE7",
"D. c #FEFBE8",
"F. c #FFFBE8",
"G. c #FEFBEA",
"H. c #FFFCE8",
"J. c #FFFFFC",
"K. c white",
/* pixels */
"                                                o o o o o o o o o o o o o o o o                                                 ",
"                                                o o o o o o o o o o o o o o o o                                                 ",
"                                                o o o o o o o o o o o o o o o o                                                 ",
"                                                7 7 7 7 7 7 7 7 7 7 7 7 7 7 7 7                                                 ",
"                                o o o o o o o 7 g.m.m.m.m.m.m.m.m.m.m.m.m.m.m.g.7 o o o o o o o                                 ",
"                                o o o o o o o 7 m.K.K.K.K.K.K.K.K.K.K.K.K.K.K.m.7 o o o o o o o                                 ",
"                                o o o o o o o 7 m.K.K.K.K.K.K.K.K.K.K.K.K.K.K.m.7 o o o o o o o                                 ",
"                                7 7 7 7 7 7 7 a v.H.A.D.A.D.A.D.D.A.A.D.A.A.H.j.u - - - % % & &                                 ",
"                        $ $ $ p g.N.m.m.m.m.m.v.d.y.y.y.y.y.y.y.y.y.y.y.t.y.y.w.E x x l v f h s % o o o                         ",
"                        $ $ o p N.K.K.K.K.K.K.H.t.! [ [ { { ! { [ [ [ [ _ _ ^ ^ { { q.q.G Z F m % o o o                         ",
"                        $ $ o p M.K.K.K.K.K.K.D.y.{ [ [ [ [ ^ ^ { ( [ [ o.o.{ { { q.o.q.S Z Z m % o o o                         ",
"                        $ $ o p m.K.K.K.D.A.D.b.p.( ' ' t.y.y.y.y.t.t.t.q.' [ _ q.[ { q.G Z Z f % o o o                         ",
"                        o o o 7 m.K.K.D.f.t.t.p.:.@.@.>.z.D.A.A.D.A.D.c.>.+.@.$.] { q.9.H F Z f % o o o                         ",
"                        o o o 7 m.K.K.A.t.~ ^ _ @.*.*.1.V.K.K.K.K.K.K.C.1.@.*.@.' [ [ 9.G V Z f % o o o                         ",
"                        o o o 7 n.K.K.D.t.~ { _ @.*.*.1.C.K.K.K.K.K.K.C.1.*.-.%.' [ [ 9.G V V f % o o o                         ",
"                        7 7 7 a v.H.D.z.p._ _ ] >.1.1.s.x.C.C.C.A.A.D.z.W I I P ' ' ' ! J G S b 0 % % %                         ",
"                o o o 7 g.m.m.v.d.y.y.p.:.@.@.>.l.C.C.c.s.1.1.i.a.y.y.4.w , , e P ;.%.$.! 9.q.5.v f h s % o o o                 ",
"                o o o 7 m.K.K.H.t.~ { ( %.*.@.1.C.K.K.C.1.*.*.+.( { { z ; o o , I *.*.%.' [ q.q.S Z F m % o o o                 ",
"                o o o 7 m.K.K.D.y.[ [ ' %.*.*.1.C.K.K.b.1.*.*.%.] { { x 2 o o , I *.*.%.' [ [ 9.G Z Z f % o o o                 ",
"                o o o 7 m.K.K.A.y.[ [ ' %.*.*.1.C.K.K.C.1.*.*.%.] q.{ z - o o - I =.*.%.' [ [ 9.G Z Z f % o o o                 ",
"                o o o 7 m.K.K.A.y.[ [ ' %.*.*.1.C.K.K.C.1.*.*.%.] ! { Y : o o , I =.*.%.' [ q.9.S Z B m % o o o                 ",
"                o o o 7 m.K.K.D.y.[ [ ' %.*.*.1.C.K.K.C.1.*.*.%._ { { Y - o o , L *.*.%.[ { o.q.G V B m % o o o                 ",
"                o o o 9 m.K.K.A.y.[ [ ' %.*.*.1.b.K.K.C.i.*.*.%.' { { Y - o o 1 I =.*.%.] ^ ! 9.G B B m % o o o                 ",
"                o o o 7 m.K.K.A.y.[ { ] %.*.*.i.C.K.K.C.3.*.*.%.' q.{ Y - o o 1 I =.*.%.] { q.9.S B B m % o o o                 ",
"                o o o 7 m.K.K.D.y.[ q.] %.*.*.1.C.K.K.C.1.*.*.%.' [ o.Y - o o , I *.*.%.] { { 9.S B B f % o o o                 ",
"                o o o 7 m.K.K.A.y.[ { ] %.*.*.1.C.K.K.C.1.*.*.%.' [ o.Y - o o - I =.*.%.o.^ q.9.S B Z m % o o o                 ",
"                o o o 7 m.K.K.A.y.{ ! ] %.*.*.1.C.K.K.C.i.*.*.%.' q.] R - o o , L *.*.%.] ^ { q.S B B f % o o o                 ",
"                o o o 7 m.K.K.D.y.! { _ %.*.*.1.C.K.K.b.1.*.*.%.' [ q.R - o o 1 I -.*.%._ ^ ! q.S B B f % o o o                 ",
"                o o o 7 m.K.K.A.y.{ ! ] +.@.*.i.C.K.K.C.>.*.*.%.o.{ q.z : o o , I *.*.%.] q.q.7.S B Z m % o o o                 ",
"                o o o 7 m.K.K.A.y.[ { _ @.*.*.1.C.K.K.C.1.*.*.%.] { o.Y 2 o o , I *.*.%.] { X.q.S B B m % o o o                 ",
"                o o o 7 m.K.K.A.y.[ [ ] %.*.*.1.C.K.K.C.1.*.*.%.] ^ { x - o o , L *.*.%._ ^ ^ 7.S B Z m % o o o                 ",
"                o o o 7 m.K.K.A.y.[ q.] %.*.*.1.b.K.K.C.1.*.*.%.( { { z - o o - P =.*.%._ { ^ ! S B B m % o o o                 ",
"                o o o 7 m.K.K.A.a.[ [ ' %.*.*.i.C.K.K.H.1.*.*.%.] { { Y 2 o o , L *.*.%.] { { 9.H V Z f % o o o                 ",
"                o o o 7 m.K.K.D.d.[ [ ' %.*.*.1.C.K.K.b.1.*.*.%.] ! { Y 2 o o - L -.*.%.' [ q.9.H V Z f % o o o                 ",
"                o o o 7 m.K.K.A.e.) [ ' %.*.*.1.C.K.K.C.1.*.*.%._ ^ q.Y - o o , L *.*.%.' [ q.9.G V Z f % o o o                 ",
"                o o o 7 m.K.K.A.t.~ [ ' %.*.*.1.C.K.K.C.i.*.*.%.] ^ X.Y - o o 1 L -.*.%.' [ { 9.S Z Z f % o o o                 ",
"                o o o 7 m.K.K.D.t.~ ^ { %.*.*.1.b.K.K.C.1.*.*.%.o.{ q.z : o o , L *.*.%.' [ [ 9.S Z Z f & o o o                 ",
"                o o o 7 m.K.K.A.t._ [ ' %.*.*.i.H.K.K.C.1.*.*.%.] { o.Y 2 o o , L -.*.%.' { q.9.A V Z f % o o o                 ",
"                o o o 7 m.K.K.A.y.[ [ ' *.*.;.i.C.K.K.C.1.@.@.+.] ^ { x - o o , L *.*.%.' [ q.q.G V Z f % o o o                 ",
"                o o o 7 m.K.K.D.y.[ [ ' *.;.;.i.b.K.K.C.i.@.@.$.( { { z - o o - L -.*.;.] q.[ 9.G Z Z f % o o o                 ",
"                o o o 7 m.K.K.A.y.[ [ ' %.*.*.i.b.K.K.A.a._ ] ] { [ q.R : o o , L *.*.%.' [ q.9.S B B f % o o o                 ",
"                o o o 7 m.K.K.A.y.[ [ ' %.*.*.3.C.K.K.D.y.~ o.q.q.{ o.Y - o o , L *.*.%.' { { 9.S B Z m % o o o                 ",
"                o o o 7 m.K.K.A.y.[ q.' %.*.*.2.C.K.K.D.y.[ [ { [ [ o.Y - o o 1 I =.*.%.] { q.7.S B B f % o o o                 ",
"                o o o 7 m.K.K.A.y.[ { ' %.*.*.2.C.K.K.A.y.{ [ q.q.{ { Y - o o 1 I *.*.%.] q.{ 9.S B B f % o o o                 ",
"                o o o 7 m.K.K.A.a.[ [ ' %.*.*.2.C.K.K.A.a.[ q.{ { q.{ Y 2 o o , P *.*.%.] ^ ^ q.S B Z m % o o o                 ",
"                o o o 7 m.K.K.D.d.[ [ ' %.*.*.2.C.K.K.A.y.{ o.q.{ o.{ Y - o o - I *.*.@._ ^ { q.S B B m % o o o                 ",
"                o o o 9 m.K.K.Z.e.) [ ' %.*.*.2.C.K.K.H.y.{ { { o.{ o.Y - o o , I =.*.@.] ^ q.q.S Z Z m % o o o                 ",
"                o o o 9 g.m.m.j.w.~ [ ' %.*.*.<.l.Z.C.z.4.z z z Y Y Y j w - , e I &.%.:.! 7.q.6.n m M d % o o o                 ",
"                        7 7 7 u E { { ] %.*.*.;.<.1.1.W w ; 2 - - - - w K I P I Q ] ( ! J A S b q 4 6 4                         ",
"                        o o o , Y { q.] %.*.*.*.*.*.*.I , o o o o o o - I -.*.@.] q.{ 9.A Z Z h 6 # # $                         ",
"                        o o o - Y o.{ ] @.@.*.*.*.*.-.L 1 o o o o o o 1 I *.@.@._ { [ 9.S Z Z h 4 # $ $                         ",
"                        o o o : R q.[ ] $.+.@.%.%.%.%.U w : : - - - 2 r P &.@.#.! 9.q.5.A V Z f 6 # $ $                         ",
"                        o o o - Y { q.q.] ] ' ' ] ] ] ( R Y Y Y z x x E ( ] ] ! J G G G V V Z f 6 $ $ $                         ",
"                        o o o - z { { { ^ q.[ { ^ ^ q.{ { { o.o.{ { { { q.! { q.F Z V Z Z Z Z f 4 # $ $                         ",
"                        o o o - Y X.{ o.{ q.{ { q.{ [ q.[ q.{ q.q.[ [ q.! { [ q.S Z Z Z Z Z Z m 6 # $ $                         ",
"                        o o o : j Y Y Y Y Y z z 9.q.9.9.9.9.9.9.q.9.9.q.9.9.q.5.b f f f f f m s 6 $ $ $                         ",
"                                - - : - : : - q b S S S S S S S D G G S S G S b 0 % % % % % % %                                 ",
"                                o o o o o o o % m Z B B B B B B F F V V Z V Z f % o o o o o o o                                 ",
"                                o o o o o o o % m Z B Z B Z B B F V V Z Z Z F h % o o o o o o o                                 ",
"                                o o o o o o o % d m f m m m f f f f f f f f m s % o o o o o o o                                 ",
"                                                & % % % % % % % % % % % & % % %                                                 ",
"                                                o o o o o o o o o o o o o o o o                                                 ",
"                                                o o o o o o o o o o o o o o o o                                                 ",
"                                                o o o o o o o o o o o o o o o o                                                 "
};
