/* XPM */
static char *b74eb1c2422b4473ea6db147e2f8248a4kr5R2XygcmmiHAA[] = {
/* columns rows colors chars-per-pixel */
"64 48 117 2 ",
"   c #000000",
".  c #000000",
"X  c #141313",
"o  c #1E1E1E",
"O  c #32281D",
"+  c #1E1F20",
"@  c #232323",
"#  c #2D2D2D",
"$  c #302F2E",
"%  c #33312E",
"&  c #37382F",
"*  c #3B3C2D",
"=  c #2F2F34",
"-  c #2F3235",
";  c #333332",
":  c #3B3C33",
">  c #3B3B3B",
",  c #553919",
"<  c #473A2B",
"1  c #493B2B",
"2  c #3F402D",
"3  c #5A5E1D",
"4  c #7C511F",
"5  c #676C1F",
"6  c #6F751F",
"7  c #5C4226",
"8  c #54572A",
"9  c #7D5322",
"0  c #5E6224",
"q  c #737A24",
"w  c #414141",
"e  c #4F4F53",
"r  c #595959",
"t  c #626262",
"y  c #6B6C6A",
"u  c #737460",
"i  c #7F7F7F",
"p  c #8C601C",
"a  c #A36112",
"s  c #A96512",
"d  c #B16A13",
"f  c #BC7012",
"g  c #DE7F0D",
"h  c #8E851B",
"j  c #909817",
"k  c #A9B414",
"l  c #B2BE10",
"z  c #848A32",
"x  c #E1810C",
"c  c #E9820A",
"v  c #F48809",
"b  c #FD8E09",
"n  c #FD9108",
"m  c #F69C09",
"M  c #D8B00C",
"N  c #E4AA0B",
"B  c #F3AA0A",
"V  c #EAB00A",
"C  c #F0B40A",
"Z  c #B8C133",
"A  c #C1CF0E",
"S  c #C7D50D",
"D  c #C9D70D",
"F  c #CBD917",
"G  c #E9CE0A",
"H  c #EAD30A",
"J  c #E5DF0A",
"K  c #D6E50C",
"L  c #DCEC0A",
"P  c #DFF004",
"I  c #DFF20A",
"U  c #D4E312",
"Y  c #E3E70A",
"T  c #E2E90A",
"R  c #E0F007",
"E  c #E1F10A",
"W  c #E1F013",
"Q  c #E2F11C",
"!  c #D8E435",
"~  c #E4F127",
"^  c #E5F22E",
"/  c #E5F233",
"(  c #E6F238",
")  c #E8F539",
"_  c #C1C955",
"`  c #E7F344",
"'  c #E8F444",
"]  c #E9F44D",
"[  c #DEE768",
"{  c #EBF460",
"}  c #EEF67C",
"|  c #818181",
" . c #999B84",
".. c gray66",
"X. c #B6B6B6",
"o. c gray72",
"O. c #E6EB8F",
"+. c #F0F78B",
"@. c #EDF299",
"#. c #F2F89B",
"$. c #C3C3BC",
"%. c #F3F9A3",
"&. c #F0F5AA",
"*. c #F4F9AD",
"=. c #F6FAB9",
"-. c #CBCBCB",
";. c #F7FAC3",
":. c #F8FAC8",
">. c #F9FCD2",
",. c #FAFCD9",
"<. c #F7F8E3",
"1. c #FBFDE7",
"2. c #FCFDED",
"3. c #EEEEF1",
"4. c #F0F0F1",
"5. c #FDFDF4",
"6. c #FEFEFC",
/* pixels */
"                                                                                                                                ",
"                                                                                                                                ",
"                                                                                                                                ",
"                                                                                                                                ",
"                                                                                                                                ",
"                                                                                                                                ",
"                                                                                                                                ",
"                                                                                                                                ",
"                                                                                                                                ",
"                                                                                                                                ",
"                                                        .                                                                       ",
"                                                      # # # # = # # # # .                                                       ",
"                                                    . ; ; ; ; ; ; > ; ; .                                                       ",
"                                            X @ @ @ w ..o.o.o.o.o.o.o...; o + + X                                               ",
"                                            @ ; = # t 6.6.6.6.6.6.6.6.3.e = ; - +                                               ",
"                                        X X t | i i  .@.#.#.#.#.#.#.#.O.z 6 9 4 , X .                                           ",
"                                      . # > -.6.6.6.;.W E E R R R R R L E E V b d ; #                                           ",
"                                        # > -.6.2.,.%.W L ~ ^ ^ ^ / ^ ~ W E C b d ; @                                           ",
"                                      . # > -.6.+.Q Q E W =.2.1.1.1.1.>.^ R C n d ; #                                           ",
"                                        ; > -.6.} R E L Q :.6.6.5.6.6.<.^ R C n d % @                                           ",
"                                    o > X.$.[ ] ~ I / *.*.{ ] ] ] _ y u F E J H M f a O + .                                     ",
"                                  . # r 4.5.' R E R ` 5.5./ P R R k % * A E T I H n x 1 ; X                                     ",
"                                  . ; r 4.5.` R I I ` 5.2./ R E E k & 2 A I E I G b g < ; .                                     ",
"                                  . # r 4.5.` R T P ` 5.2.( R E R k % 2 S E I E G b g < ; .                                     ",
"                                  . ; r 4.5.' P T R ' 5.2.( E L E k - 2 A I I I G b x < - .                                     ",
"                                  . $ r 4.5.` I I I ` 5.2.( I E E k - 2 A I I I G b g : ; .                                     ",
"                                  . = r 4.5.' I E R ` 5.5./ R I E k ; 2 S E I I G b g < ; X                                     ",
"                                  . # r 4.5.' I I L ) 5.2./ R I E l & 7 A E I I G b g < ; .                                     ",
"                                  . # r 4.5.` T T I ` 5.2./ R T E k ; 2 A E I I G b x < ; X                                     ",
"                                  . # r 4.5.` P R I ` 5.5./ R I E k ; 2 A I I E G b g < - .                                     ",
"                                  . # r 4.5.' E E R ` 5.2.( T E E k ; 2 S E T I G n x < % .                                     ",
"                                  . ; r 4.5.' E I R ` 5.2./ I I E k ; 2 A E E I G b g < ; .                                     ",
"                                  . # r 4.5.` R I T ` 5.2.( R E E l & * S E L E G n g < $ .                                     ",
"                                  . ; r 4.5.` R I P ` 5.2.( R E E k ; 2 A E E E G b g < ; .                                     ",
"                                  . ; r 4.5.` R E I ` 5.2.( R E R k : 2 S E E E G b g < - X                                     ",
"                                  . # r 4.5.' R E R ` 5.2.( R E E k & 2 A E E I G b g < ; .                                     ",
"                                  . # r 4.5.' R I I ) 5.2./ R E E k ; 2 A E E I G v g < ; .                                     ",
"                                  . ; r 4.5.] R T I ` 6.5.) E R E k ; 2 A I E I G v x < ; X                                     ",
"                                    o w o.$.! R E E / *.&.Z k k l j 0 5 D E J H M g s # + .                                     ",
"                                      . ; : l E E L I E U 8 ; ; ; 0 K L E E V n d $ #                                           ",
"                                      . # & l E E E I E K 0 * 2 * 5 L L Y Y B b d - =                                           ",
"                                      . # & l E E E T I L S A S S S E T B m n b d - # .                                         ",
"                                      . $ * l E R T R T I E E E E E E T m v v v s ; #                                           ",
"                                        X X 3 q q 6 h V C C C C C C C N p 9 p p , X .                                           ",
"                                            @ ; ; = 7 v b b b b b b b c 1 ; ; ; +                                               ",
"                                            X + + + < a d d d d d d d a O + @ @ X                                               ",
"                                                    . $ ; ; ; ; ; ; ; #                                                         ",
"                                                      # @ # @ # # @ # @                                                         "
};
