/* XPM */
static char *_eeef7ac73774135f8ab3a2199004514izHjGblbgMszPCuk[] = {
/* columns rows colors chars-per-pixel */
"32 32 82 1 ",
"  c black",
". c gray4",
"X c #0B0000",
"o c #0C0000",
"O c #100000",
"+ c #150000",
"@ c #160000",
"# c #180000",
"$ c #250000",
"% c #2D0000",
"& c #2F0000",
"* c #320000",
"= c #3A0000",
"- c #3B0000",
"; c #400000",
": c #4C0000",
"> c #590000",
", c #5D0000",
"< c #600000",
"1 c #610000",
"2 c #640000",
"3 c #6D0000",
"4 c #6E0000",
"5 c #700000",
"6 c #740000",
"7 c #770000",
"8 c #7C0000",
"9 c #7D0000",
"0 c #7E0000",
"q c #800000",
"w c #850000",
"e c #870000",
"r c #880000",
"t c #890000",
"y c #8A0000",
"u c #8E0000",
"i c #8F0000",
"p c #900000",
"a c #910000",
"s c #950000",
"d c #960000",
"f c #980000",
"g c #9A0000",
"h c #A10000",
"j c #A40000",
"k c #A60000",
"l c #AF0000",
"z c #B00000",
"x c #B70000",
"c c #BD0000",
"v c #CC0000",
"b c #CE0000",
"n c #CF0000",
"m c #D00000",
"M c #D10000",
"N c #D60000",
"B c #D70000",
"V c #DB0000",
"C c #DE0000",
"Z c #E00000",
"A c #E10000",
"S c #E80000",
"D c #EE0000",
"F c #EF0000",
"G c red",
"H c #FF0202",
"J c #FF0505",
"K c #FF1111",
"L c #FF1212",
"P c #FF1414",
"I c #FF1616",
"U c #FF1F1F",
"Y c #FF2727",
"T c #FF2F2F",
"R c #FF3232",
"E c #FF5454",
"W c #FF6363",
"Q c #FF7373",
"! c #FF8383",
"~ c #FFB9B9",
"^ c #FFFCFC",
"/ c white",
/* pixels */
"     ........      ........     ",
"     ........      ........     ",
"  ..O3353333-..  ..-33hkkgg$..  ",
"  ..@GGGGGGG2..  ..2GGGGnee*..  ",
"  ..@GGGGGGG2..  ..2GGGGnee*..  ",
"..aVBYYRTUGGZVc..cVZGGGGFBBe9<..",
"..xGG////!GGGGF..FGGGGGGGGGrr3..",
"..xGG//^/!GGGGF..FGGGGGGGGGre3..",
"..xGG//LGGGGGGGGGGGGGGGGGGGse;..",
"..xGG//IGGGGGGGGGGGGGGGGGGGee<..",
"..lGJWWLGGGGGGGGGGGGGGGGGGGrr6..",
"..xGGGGGGGGGGGGGGGGGGGGGGGGee9..",
"..xGGGGGGGGGGGGGGGGGGGGGGGGre9..",
"..lGL~~EGGGGGGGGGGGGGGGGGGGaei..",
"..xGI//QGGGGGGGGGGGGGGGGGGGseg..",
"..xGI//QGGGGGGGGGGGGGGGGGGGseg..",
"  ..@GGGGGGGGGGGGGGGGGGGSeeo..  ",
"  ..@GGGGGGGGGGGGGGGGGGGSeeo..  ",
"  ..@VVFGGGGGGGGGGGGGGnnx66X..  ",
"     ..nGGGGGGGGGGGGGGre3..     ",
"     ..nGGGGGGGGGGGGGGrr3..     ",
"     ..>3eGGGGGGGGGVsg:-&..     ",
"       ..%GGGGGGGGGmre#..       ",
"       ..%GGGGGGGGGmee#..       ",
"         ...ZGGGGir7...         ",
"         ...ZGGGGir6...         ",
"          ..zVnnv96,..          ",
"            ..$er$..            ",
"            ..$er$..            ",
"            ..#--@..            ",
"              ....              ",
"              ....              "
};
