/* XPM */
static char *_fdae90c997246edead8b4816beebcc0Zu5qcQHDHcISXUlH[] = {
/* columns rows colors chars-per-pixel */
"64 48 119 2 ",
"   c #000000",
".  c #080807",
"X  c #0B0B0B",
"o  c #110F0D",
"O  c #0F0F10",
"+  c #141415",
"@  c #17181B",
"#  c #1C1B1A",
"$  c #201F1F",
"%  c #3D260B",
"&  c #26211C",
"*  c #242425",
"=  c #262728",
"-  c #262829",
";  c #2C2C2D",
":  c #312720",
">  c #3D2D21",
",  c #38352C",
"<  c #3A382D",
"1  c #2F2F30",
"2  c #2F3131",
"3  c #323232",
"4  c #3A3733",
"5  c #3B3935",
"6  c #3B3A3B",
"7  c #4B3C2F",
"8  c #533B27",
"9  c #593C24",
"0  c #543D2B",
"q  c #593E29",
"w  c #413831",
"e  c #514429",
"r  c #5B402A",
"t  c #524130",
"y  c #6C4526",
"u  c #664529",
"i  c #714724",
"p  c #7C4A22",
"a  c #614D35",
"s  c #654F38",
"d  c #665039",
"f  c #7B5930",
"g  c #4E4E4E",
"h  c #796C42",
"j  c #864D1E",
"k  c #8C4F1E",
"l  c #96541C",
"z  c #99551C",
"x  c #9E5A1E",
"c  c #A25C1E",
"v  c #A6601F",
"b  c #804C21",
"n  c #8F5320",
"m  c #925520",
"M  c #805D31",
"N  c #A65F23",
"B  c #93642D",
"V  c #9D6328",
"C  c #AA6522",
"Z  c #AD6F24",
"A  c #B66B29",
"S  c #BB7324",
"D  c #BC712E",
"F  c #B7792E",
"G  c #B8792E",
"H  c #A07B3B",
"J  c #C77A26",
"K  c #C1742E",
"L  c #C47B2B",
"P  c #8C7D46",
"I  c #CF8129",
"U  c #D18128",
"Y  c #D88629",
"T  c #DA892A",
"R  c #DD8C3D",
"E  c #E28F2C",
"W  c #E4922E",
"Q  c #E59A34",
"!  c #E89D3A",
"~  c #E7A73D",
"^  c #EAA339",
"/  c #A29049",
"(  c #AB974D",
")  c #B8A24F",
"_  c #B7A350",
"`  c #CFA84A",
"'  c #D6A544",
"]  c #CCB355",
"[  c #EEAF41",
"{  c #E8A24F",
"}  c #F7A048",
"|  c #F8A148",
" . c #EFB041",
".. c #EBB749",
"X. c #E5BA4F",
"o. c #F1B242",
"O. c #E9BF51",
"+. c #CCB664",
"@. c #FACB53",
"#. c #F5CF59",
"$. c #FFDD5F",
"%. c #FACF62",
"&. c #FEDE64",
"*. c #FFE160",
"=. c #8E8E8E",
"-. c #B59B86",
";. c #D0A984",
":. c #CCBD87",
">. c #EFC088",
",. c #FFEA92",
"<. c #FBE2BE",
"1. c #C6C6C6",
"2. c #CDCBC1",
"3. c #CCCDCF",
"4. c #CED0D2",
"5. c #FDEBD2",
"6. c #FFF9DA",
"7. c #FEF2E4",
"8. c #FDFEFE",
/* pixels */
"                                                                                                                                ",
"                                                                                                                                ",
"                                                                                                                                ",
"                                                                                                                                ",
"                                                                                                                                ",
"                                                                                                                                ",
"                                                                                                                                ",
"                                                                                                                                ",
"                                                                                                                                ",
"                                                                                                                                ",
"                                                                                                                                ",
"                                                                                                                                ",
"                                                                                                                                ",
"                                                                                                                                ",
"                                                                                                                                ",
"                                                                                                                                ",
"                                                                                                                                ",
"                                                                                                                                ",
"                                                                                                                                ",
"                                                                                                                                ",
"                                                                                                                                ",
"                                                                                                                                ",
"                                        . + + + + + + + + + + + + + + + + + + +                                                 ",
"                                        X 6 6 6 5 5 5 5 5 5 6 6 5 5 5 5 5 5 5 4 .                                               ",
"                                      @ g 1.3.2.+.] ] ] ] ] ] ] ] ] ] ] ] ] ] ) < +                                             ",
"                                  . o g =.8.7.<.%.@.@.@.@.@.@.@.@.@.@.@.@.@.@.X.s : X                                           ",
"                                  + 6 1.8.8.>.W W W W W W W W W W W W W W W W T m y 1 .                                         ",
"                                  + 6 3.7.>.{ T S V f f f f f f f f M '  .W W T x y 1 X                                         ",
"                                  + 6 2.<.W T I l 9 ; ; ; ; - - ; - ; _ O.Q W T x y 1 .                                         ",
"                                  + 5 +.%.W S n 7 *   . .   . . . . . , h #.[ Y c y 1 .                                         ",
"                                  + 5 ] @.W J C u > + + + + + + + + + @ e ..^ Y x y 3 .                                         ",
"                                  + 5 ] @.W W Y c i 4 4 4 4 4 4 4 4 4 + % T T Y c y ; .                                         ",
"                                  + 5 ] @.W E E U L G G G G G F F F F Z S W S c z y 3 .                                         ",
"                                  o ; / ` I I I U U U U U U U U U J U U I I C l b 9 * .                                         ",
"                                    . - t l z l l z l l l l l l z z l l z l l j w &                                             ",
"                                      O & q r q r r r -.;.L v l l p r r q r r 8 # X                                             ",
"                                        X ; ; - ; 1 6 4.5.! S z z u 3 ; ; - ; = .                                               ",
"                                          . . . . + 6 3.6.%.~ U x y 3 + . . . .                                                 ",
"                                                  + 6 3.6.&. .Y c y 3 X                                                         ",
"                                                  + 6 3.6.&.[ Y x y ; +                                                         ",
"                                                  + 6 3.6.&.[ Y x y 2 = * = O                                                   ",
"                                                  + 6 4.6.&.[ Y x b s d a 7 $ X                                                 ",
"                                                  + 6 3.6.&.[ Y x D } | R l q ; .                                               ",
"                                                  + 5 :.,.&.[ Y x N K K A z q ; .                                               ",
"                                                  + 5 ] $.$.o.Y x k j j j k 8 = .                                               ",
"                                                  @ 5 ] *.$.o.Y c i < 4 w w # .                                                 ",
"                                                  + 4 P ( ( H B i 0 3 * # $ X                                                   ",
"                                                  + 3 3 3 3 3 3 3 3 3 X                                                         "
};
