/* XPM */
static char *result[] = {
/* columns rows colors chars-per-pixel */
"64 48 169 2 ",
"   c #000000",
".  c #0B0504",
"X  c #0C0907",
"o  c #130203",
"O  c #1B0003",
"+  c #120806",
"@  c #1C070A",
"#  c #130B08",
"$  c #1A0D0A",
"%  c #151515",
"&  c #1F1F1F",
"*  c #250105",
"=  c #2D0508",
"-  c #320006",
";  c #370409",
":  c #26130E",
">  c #2A140F",
",  c #300511",
"<  c #2C1510",
"1  c #211A15",
"2  c #371913",
"3  c #362619",
"4  c #3D2519",
"5  c #041429",
"6  c #1A1B29",
"7  c #041B37",
"8  c #272727",
"9  c #3E2B2F",
"0  c #34312E",
"q  c #2D2F31",
"w  c #383635",
"e  c #4B010A",
"r  c #59020C",
"t  c #471B1A",
"y  c #461F18",
"u  c #6A000D",
"i  c #72000E",
"p  c #78000F",
"a  c #631B19",
"s  c #6A1D1B",
"d  c #4D241B",
"f  c #462E1F",
"g  c #50251C",
"h  c #542A1F",
"j  c #562D20",
"k  c #453222",
"l  c #563725",
"z  c #473F39",
"x  c #633425",
"c  c #49413B",
"v  c #5F4531",
"b  c #7B4B33",
"n  c #7A5538",
"m  c #04244E",
"M  c #072C5C",
"N  c #123263",
"B  c #083777",
"V  c #203C6E",
"C  c #6D214F",
"Z  c #7F384F",
"A  c #7A2356",
"S  c #5B2E67",
"D  c #4E3271",
"F  c #622B65",
"G  c #6E3766",
"H  c #3E7176",
"J  c #524F4F",
"K  c #535353",
"L  c #754054",
"P  c #7D614C",
"I  c #467573",
"U  c #7F7F7F",
"Y  c #9F0013",
"T  c #AB0015",
"R  c #BA0016",
"E  c #AE0C31",
"W  c #AE1238",
"Q  c #B41035",
"!  c #C30018",
"~  c #C70319",
"^  c #CA0119",
"/  c #D7011A",
"(  c #DC021C",
")  c #E60016",
"_  c #E5001B",
"`  c #E9001A",
"'  c #CB0828",
"]  c #D00727",
"[  c #DC0D20",
"{  c #E50B21",
"}  c #E80B22",
"|  c #E61024",
" . c #E5263D",
".. c #855037",
"X. c #8A5439",
"o. c #925A3D",
"O. c #A54B38",
"+. c #861D4D",
"@. c #8C1D4C",
"#. c #961743",
"$. c #952B4F",
"%. c #CB3446",
"&. c #E63B4F",
"*. c #E63C50",
"=. c #9D5946",
"-. c #A25B47",
";. c #8C6B50",
":. c #926E51",
">. c #977153",
",. c #A66B47",
"<. c #A9764D",
"1. c #AC7C57",
"2. c #B27B51",
"3. c #BC7D53",
"4. c #8C4670",
"5. c #E84456",
"6. c #6A8C5C",
"7. c #799753",
"8. c #5C8565",
"9. c #BEC92D",
"0. c #F7EF0E",
"q. c #8EA748",
"w. c #C68859",
"e. c #D59463",
"r. c #DD9A67",
"t. c #EF8E61",
"y. c #F78C61",
"u. c #F98D62",
"i. c #E59D67",
"p. c #E99C6B",
"a. c #F69364",
"s. c #F89364",
"d. c #E29A70",
"f. c #D2A07A",
"g. c #E4A26C",
"h. c #EBA46C",
"j. c #EFA96F",
"k. c #F3AA6F",
"l. c #FCAF72",
"z. c #FEB173",
"x. c #0E4397",
"c. c #06469E",
"v. c #0A469B",
"b. c #05499E",
"n. c #09499D",
"m. c #144494",
"M. c #114E98",
"N. c #1A5399",
"B. c #255E88",
"V. c #0749A1",
"C. c #536C8B",
"Z. c #798FA7",
"A. c #6F98C6",
"S. c gray59",
"D. c #ADADAC",
"F. c #EF8F9A",
"G. c #F0A4AC",
"H. c #F2B3BA",
"J. c #92ACCF",
"K. c #A7BBD7",
"L. c #B6CBE2",
"P. c #DED5D6",
"I. c #DFDFDF",
"U. c #F3C3C8",
"Y. c #E2E2E2",
"T. c #E3ECF3",
"R. c #F9EFF0",
"E. c #FDF5F5",
"W. c #FEFEFE",
/* pixels */
"                                                                                                                                ",
"                                                                                                                                ",
"                                                                                                                                ",
"                                                                                                                                ",
"                                                                                                                                ",
"                                                                                                                                ",
"                                                                                                                                ",
"                                                                                                                                ",
"                                                                                                                                ",
"                                                                                                                                ",
"                                                                                                                                ",
"                                                                                                                                ",
"                                                                                                                                ",
"                                                                                                                                ",
"                                                                                                                                ",
"                                                                                                                                ",
"                                                  o u i i i i i i i i *                                                         ",
"                                                  * / ` ` _ _ _ _ _ _ e                                                         ",
"                                              o r p ( _ _ _ _ _ _ _ { Y i i p p i O                                             ",
"                                              * ~ ( ( ( ( [ { { { [ ~ [ } / ^ ^ ! -                                             ",
"                                              o s s s s a O.y.y.u.=.9 -.a.x o O O .                                             ",
"                                              + h h g h h ,.z.z.z.:.q >.z.l                                                     ",
"                                          . # f e.,.d ..r.h.l.l.z.:.q >.z.w.<.<.<.3                                             ",
"                                          . y ..z.3.d X.p.k.l.l.z.>.w :.g.k.z.z.z.l                                             ",
"                                          + y ..z.3.d h x ,.z.l.l.h.e.;.z 1.l.l.z.2.n 1                                         ",
"                                          . y b p.3.x x j ,.z.l.l.h.r.P q ;.g.r.g.e.w.3                                         ",
"                                          . d h x o.i.i.i.h.l.l.z.:.z w 0 w J z c 1 #                                           ",
"                                          . 2 2 2 b l.z.z.z.l.l.l.>.z z c z z q 8 X                                             ",
"                                              .   f k.z.l.l.z.z.z.j.g.g.g.h.h.v                                                 ",
"                                                  4 t.p.f.d.s.s.a.a.t.w.<.<.<.k                                                 ",
"                                                  ; [ $.N.G | | | | [ =                                                         ",
"                                            .     e ( @.b.F _ _ _ ] E , @ O O O O                                               ",
"                                          O Y T T R _ @.V.F ) ) ) A x.C ~ ~ ~ ~ R -                                             ",
"                                        * e ( _ { _ ` @.V.D Q Q Q S V.A _ _ ` ) _ r O                                           ",
"                                      O R / ) ) _ _ ) @.c.x.m.m.m.x.V.A ) _ _ _ _ / ! ;                                         ",
"                                      @ %.&.&.&._ ] W Z I B.n.b.n.B.H L W ' _  .*.*.*.t                                         ",
"                                      & P.E.E.G._ #.m.6.0.q.n.n.b.7.0.7.x.+._ F.E.E.R.J                                         ",
"                                      1 Y.W.W.U.5.4.v.I 9.6.v.n.c.8.9.8.V.4.5.H.W.W.W.J                                         ",
"                                      & I.W.W.W.W.K.n.n.M.M.v.n.v.M.M.x.c.J.E.W.W.W.W.K                                         ",
"                                      & Y.W.W.T.L.A.n.v.n.n.n.n.c.c.c.c.c.A.L.T.W.W.W.K                                         ",
"                                      & Y.W.W.L.n.n.n.n.n.V.n.V.n.v.v.c.V.n.n.K.W.E.W.J                                         ",
"                                      % S.D.D.Z.n.n.n.n.V.B m m m B n.n.M.V.n.C.S.U 8.8                                         ",
"                                              7 n.n.V.n.V.M .     7 n.n.V.V.V.5     X .                                         ",
"                                            . 8 V V V N m 7       5 M N V V N 6 X .                                             ",
"                                          . y d d d d >               $ d d d d t #                                             ",
"                                        # : d d g d g :               $ g d d d d : $ .                                         ",
"                                      X y d d d d d g >               $ d d d d d d d $                                         ",
"                                        < < < < < < < #               X < < < < < < < X                                         "
};
