/* XPM */
static char *_4efa864ae08483aec033c42e6bee9b2408urvuW3jze9LSm[] = {
/* columns rows colors chars-per-pixel */
"64 64 128 2 ",
"   c black",
".  c gray1",
"X  c gray2",
"o  c #000C00",
"O  c #000D00",
"+  c #000E00",
"@  c #031003",
"#  c #001A00",
"$  c #031C03",
"%  c gray10",
"&  c #1A1B1A",
"*  c gray11",
"=  c #1D1C1D",
"-  c #1D1D1D",
";  c #1A261A",
":  c #1A291A",
">  c #373737",
",  c #005E00",
"<  c #036003",
"1  c #006800",
"2  c #006900",
"3  c #006A00",
"4  c #006B00",
"5  c #037303",
"6  c #007500",
"7  c #007600",
"8  c #007700",
"9  c #007800",
"0  c #007900",
"q  c #037903",
"w  c #007E00",
"e  c #007F00",
"r  c #037F03",
"t  c #1A761A",
"y  c #1A781A",
"u  c #1A841A",
"i  c #1A851A",
"p  c #1C851C",
"a  c #1D861D",
"s  c #1D871D",
"d  c #1A8C1A",
"f  c #1D8D1D",
"g  c #00AF00",
"h  c #03B103",
"j  c #00B600",
"k  c #00B700",
"l  c #00B800",
"z  c #00BE00",
"x  c #00BF00",
"c  c #03BF03",
"v  c #1AB51A",
"b  c #1AB61A",
"n  c #1ABD1A",
"m  c #1ABF1A",
"M  c #1DB81D",
"N  c #1CBE1C",
"B  c #1DBE1D",
"V  c #1DBF1D",
"C  c #379437",
"Z  c #03C503",
"A  c #1AC51A",
"S  c #1DC51D",
"D  c #03EA03",
"F  c #00F000",
"G  c #00F100",
"H  c #03F103",
"J  c #00F800",
"K  c #00F900",
"L  c #03F803",
"P  c #1AF01A",
"I  c #1AF11A",
"U  c #1AF71A",
"Y  c #1DF11D",
"T  c #1AF81A",
"R  c #1CF81C",
"E  c #1DF81D",
"W  c #1DF91D",
"Q  c #37C537",
"!  c #37F837",
"~  c #C1C1C1",
"^  c #C1C3C1",
"/  c gray77",
"(  c #C1CDC1",
")  c #C1D6C1",
"_  c #C1DAC1",
"`  c #C1DBC1",
"'  c gray86",
"]  c #DCDBDC",
"[  c gainsboro",
"{  c gray87",
"}  c #C1E2C1",
"|  c #C1E3C1",
" . c #C1EAC1",
".. c #C1F0C1",
"X. c #C1F1C1",
"o. c #C1F7C1",
"O. c #C1F8C1",
"+. c #DBE9DB",
"@. c #DBEADB",
"#. c #DBEFDB",
"$. c #DCE9DC",
"%. c #DCEADC",
"&. c #DCEBDC",
"*. c #DEEBDE",
"=. c #DBF0DB",
"-. c #DBF1DB",
";. c #DBF7DB",
":. c #DCF0DC",
">. c #DCF1DC",
",. c #DCF2DC",
"<. c #DEF1DE",
"1. c #DBF8DB",
"2. c #DCF8DC",
"3. c #DCF9DC",
"4. c #DEF8DE",
"5. c gray96",
"6. c #F5F6F5",
"7. c #F5F7F5",
"8. c #F5F8F5",
"9. c #F8F8F8",
"0. c #FAF8FA",
"q. c #FAF9FA",
"w. c gray98",
"e. c #FCF8FC",
"r. c #FCF9FC",
"t. c #FCFAFC",
"y. c #FCFBFC",
"u. c gray99",
/* pixels */
"                                        . . . . . . . . . . . . . . . . . . . . . . . .                                         ",
"                                        . . . . . . . . . . . . . . . . . . . . . . . .                                         ",
"                                        . . . . . . . . . . . . . . . . . . . . . . . .                                         ",
"                                        - - - - - - - & @ O O O O O @ O O O @ O O O O O                                         ",
"                        . . . . . . . - / [ ] ] ' ' ] ( t 4 4 1 1 4 1 4 4 4 4 1 4 1 4 , O . . . . . . .                         ",
"                        . . . . . . . - [ t.w.w.w.w.t.+.s 8 8 8 8 8 8 8 0 0 8 8 0 0 8 4 O . . . . . . .                         ",
"                        . . . . . . . - ' w.9.9.w.7.w.+.s 8 8 8 8 8 8 8 8 0 8 8 8 8 8 4 O . . . . . . .                         ",
"                        - - - - - - - > [ w.9.9.7.w.w.*.f w w w w w u w w w w w w w w 5 : - - - - - - -                         ",
"                . . . - / [ ] ' ' ' ' [ 7.9.9.9.9.9.w.#.M g g g g g g g h g g h g h g b ) [ ' ' ' ' [ / - . . .                 ",
"                . . . - [ u.w.w.w.w.w.w.9.9.9.9.9.9.9.#.B j j j j l l j j j j j j j j B ,.t.w.w.w.w.u.[ - . . .                 ",
"                . . . & ] w.w.7.9.9.9.9.9.9.9.9.9.e.w.,.B j j j j j j j j j j j j j j B &.t.w.w.w.7.w.' - . . .                 ",
"                - - - > [ w.9.9.9.9.9.9.9.9.9.7.4.4.4...A x x Z x x x x x x x Z x x x A  .,.#.,.7.w.w.[ > - - -                 ",
"        . . . - / [ [ [ 7.9.9.9.9.9.9.9.9.9.9.4.! E E U F F F F F F F F F F F F F F F D A S B Q ,.w.9.7.[ ] [ / - . . .         ",
"        . . . - [ u.t.w.9.9.9.9.9.9.9.9.9.9.9.;.U J J J J J J J J J J J K J K K J J J F x j j B &.w.9.9.w.w.u.[ - . . .         ",
"        . . . - ] w.9.9.9.9.9.9.9.9.w.8.9.e.w.4.E J J J J J J J J J J J J J J J J J J F x j j M ,.t.9.9.8.w.w.' - . . .         ",
"        . . . - ' w.9.9.9.9.9.9.9.9.9.7.4.4.4.O.E J J J T E E E E E E E E E E E E E E I Z x x A  .,.&.<.7.w.w.' - . . .         ",
"        . . . - ' w.w.9.9.9.9.9.9.9.9.4.! E E U J J J E o.4.4.;.;.4.;.4.;.4.;.4.;.4.4.o.I F F D S B B Q ,.9.t.] - . . .         ",
"        . . . - ' w.7.w.9.9.9.9.9.9.w.1.E J J J J J J E 4.w.e.9.9.9.w.9.9.9.w.9.9.9.w.1.E J J F x j j B #.w.w.] - . . .         ",
"        . . . - [ t.w.9.9.9.9.9.9.w.e.;.E J J J J J J E ;.9.9.9.9.9.9.9.9.9.9.9.9.9.w.1.E J J F x j j B ,.t.t.] - . . .         ",
"        O O o : ) ,.&.-.4.;.4.;.4.;.4.o.E J J J U E E ! 4.9.9.9.9.9.9.9.9.9.9.9.9.9.w.4.! E E I Z x x A  .&.,.) : o O O         ",
". . . O , 4 1 5 b m B S Y E E E E E E U J J J E o.1.1.4.7.9.9.9.9.9.9.9.9.9.9.9.9.9.9.7.4.4.;.o.P D F D A B S v 5 1 4 , O . . . ",
". . . O 4 0 8 w h j j x F J J J J J J J J J J E 4.e.w.9.w.9.9.9.9.9.9.9.9.9.9.9.9.9.7.w.e.9.e.4.E J J J x j j g w 8 8 4 O . . . ",
". . . O 4 8 8 w h j j x F J J J J J J J J J J E ;.9.9.9.9.9.9.9.9.9.9.9.9.9.9.9.9.9.9.9.9.9.w.1.E J J F x j j g w 8 0 4 @ . . . ",
". . . O 4 0 8 w b B B S Y E E U J J J J J J J E 4.9.9.9.9.9.9.9.9.9.9.9.9.9.9.9.9.9.9.9.9.9.9.;.E J K F x j j g w 8 0 4 O . . . ",
". . . O 1 8 8 u } &.-.-.4.4.;.o.E J J J J J J E 4.w.9.9.9.9.9.9.9.9.9.9.9.9.9.9.9.9.9.9.9.9.9.;.E J J F x j j g w 8 8 4 O . . . ",
". . . @ 4 8 8 s $.e.w.w.9.e.9.4.E J J J J J J E 1.w.9.9.9.9.9.9.9.9.9.9.9.9.9.9.9.9.9.9.9.9.w.1.E J J F x j l g w 8 8 1 O . . . ",
". . . O 4 8 5 p +.w.9.9.9.9.9.;.E J J J J J J E 4.9.9.9.9.9.9.9.9.9.9.9.9.9.9.9.9.9.9.9.9.9.9.;.E J J F x j l g w 8 8 4 O . . . ",
". . . @ t s u C *.w.9.9.9.9.9.4.! E E T J J J E 4.9.9.9.9.9.9.9.9.9.9.9.9.9.9.9.9.9.9.9.9.9.e.4.E J J F x j j g d s s t @ . . . ",
". . . & ( &.$.*.7.9.9.9.9.9.9.7.4.1.4.o.U J J E ;.9.9.9.9.9.9.9.9.9.9.9.9.9.9.9.9.9.9.9.9.9.w.1.E J J F x j j m } *.&.( & . . . ",
". . . - [ u.w.w.9.9.9.9.9.9.9.9.9.w.e.;.E J J E 4.9.7.w.9.9.9.9.9.9.9.9.9.9.9.9.9.9.9.9.9.7.w.1.E J K F x j j B -.t.u.[ - . . . ",
". . . - ' w.w.7.9.9.9.9.9.9.9.9.9.9.9.4.E J J E 1.t.9.t.9.9.9.9.9.9.9.9.9.9.9.9.9.9.9.w.9.t.t.4.W K K J x j j B #.w.w.' - . . . ",
". . . - ' w.8.w.9.9.9.9.9.9.9.9.9.9.9.4.Y F F I ..,.&.,.7.9.9.9.9.9.9.9.9.9.9.9.9.9.9.8.,.&.,...I D F D A B B Q ,.9.w.' - . . . ",
". . . - ] w.9.9.9.9.9.9.9.9.9.9.9.9.w.-.S x x c m B B Q <.9.9.9.9.9.9.9.9.9.9.9.9.9.9.,.Q B B m x x x S  .&.,.,.7.9.w.' = . . . ",
". . . - ' w.9.7.9.9.9.9.9.9.9.9.9.9.w.-.B j j j j j j B &.w.9.9.9.9.9.9.9.9.9.9.9.9.t.&.B j j j j j j B ,.t.w.w.9.9.w.' - . . . ",
". . . - ] t.w.w.9.9.9.9.9.9.9.9.w.w.w.&.B j j j j l j B ,.t.9.9.w.9.9.9.w.9.9.t.9.9.e.,.S j j j j j j B ,.9.9.9.9.9.t.' - . . . ",
". . . & ( *.+.*.7.9.9.9.9.9.9.7.*.+.*.} b h g g g g g b } *.+.+.*.+.*.+.$.+.+.$.+.+.*.} v g g g h g h M &.w.9.9.9.9.w.] - . . . ",
". . . @ t s s C *.9.9.9.9.9.9.*.C u s u r w w w w w w w u s s s s p s s s s s s s p s u r w w w w w w f +.w.9.9.9.7.w.' - . . . ",
". . . O 1 8 5 u +.9.9.9.9.9.t.$.p 5 8 8 8 8 8 8 0 8 8 8 8 8 5 8 5 8 8 8 8 5 8 5 8 8 5 8 8 8 0 8 8 0 5 s +.w.9.9.9.w.w.' - . . . ",
". . . O 1 8 5 s *.w.e.w.9.w.t.*.s 8 8 8 8 8 8 8 8 8 0 0 8 8 0 0 8 8 8 8 8 8 8 8 8 8 8 8 8 8 0 0 8 8 8 p *.w.w.9.9.9.w.' - . . . ",
". . . O 4 8 8 u _ *.$.$.+.+.*._ t 1 4 4 4 1 4 1 4 4 1 4 4 1 4 4 4 4 1 1 4 4 1 4 4 1 4 1 4 4 4 4 8 8 8 u _ +.+.*.7.9.w.' - . . . ",
". . . @ 4 8 8 0 u s s s s p s y $ O O O O @ O O O @ O O @ O O O O O O O O @ O O @ O O @ O O O # 4 8 8 0 u s u C *.w.w.' - . . . ",
". . . O 4 8 8 8 8 8 5 8 5 8 8 1 O . . . . . . . . . . . . . . . . . . . . . . . . . . . . . . O 4 8 8 8 8 8 5 s *.9.w.' - . . . ",
". . . O 4 8 8 0 8 8 8 0 8 8 0 4 o . . . . . . . . . . . . . . . . . . . . . . . . . . . . . . O 4 8 8 8 8 8 8 s *.t.t.[ - . . . ",
". . . @ , 4 1 4 1 4 4 4 4 1 4 , ; - - - - - - & X . . . & - - - - - - & X . . . & - - - - - - ; , 4 4 1 1 4 4 y ( ' [ / - . . . ",
"        O O O O O O @ O O O O ; ^ [ ] ] ' ' [ ~ & . . & ~ [ ] ] ' ' [ ~ & . . & ~ [ ] ' ' ' [ ~ ; O O O @ O O @ & - - -         ",
"        . . . . . . . . . . . - [ t.w.w.w.w.u.[ - . . - [ t.w.w.w.w.u.] - . . - [ u.w.w.w.w.u.[ - . . . . . . . . . . .         ",
"        . . . . . . . . . . . - ' w.9.9.w.8.w.' - . . - ' w.9.9.w.7.w.] - . . - ' w.w.9.9.9.w.[ - . . . . . . . . . . .         ",
"        . . . . . . . X & - - > [ w.9.9.7.w.w.' - . . - ' w.9.9.8.w.w.] - . . - ' w.7.9.9.9.w.[ > = - = . . . . . . . .         ",
"                . . . = ~ [ ' [ 5.9.9.9.9.9.w.' - . . - ] w.w.7.w.7.w.' - . . - ' w.9.9.9.9.9.7.[ ] [ ~ & . . .                 ",
"                . . . - [ u.w.w.9.9.9.9.9.9.w.] - . . - ] w.7.w.7.w.w.] - . . - ' w.9.9.9.9.9.9.t.w.u.[ - . . .                 ",
"                . . . - ' w.w.w.9.9.9.9.9.9.w.] - . . - ] w.9.9.9.9.w.] - . . - ' w.9.9.9.9.9.9.w.7.w.' - . . .                 ",
"                . . . - ' w.w.7.9.9.9.9.9.9.w.[ > - & > [ t.9.9.9.9.w.[ > - - > [ w.9.9.9.9.9.9.7.w.w.' - . . .                 ",
"                . . . - ' w.7.9.9.9.9.9.9.9.9.7.[ ] ] [ 7.9.9.9.9.9.9.7.[ ] ] [ 7.9.9.9.9.9.9.9.9.9.w.' - . . .                 ",
"                . . . - ' w.9.9.9.9.9.9.9.9.9.9.w.w.w.w.9.9.9.9.9.9.9.9.w.w.w.w.9.9.9.9.9.9.9.9.9.9.w.] - . . .                 ",
"                . . . - [ u.w.w.9.9.9.9.9.9.9.9.w.7.9.9.9.9.9.9.9.9.9.9.9.9.9.9.9.9.9.9.9.9.9.w.w.t.u.[ - . . .                 ",
"                . . . - / [ ] [ 5.9.9.9.9.9.9.9.7.w.9.9.9.9.9.9.9.9.9.9.9.9.9.9.9.9.9.9.9.9.9.7.[ ] [ / - . . .                 ",
"                        - - - > [ w.w.9.9.9.9.9.9.9.9.9.9.9.9.7.9.9.9.9.9.9.9.9.9.9.9.9.9.9.w.[ > - - -                         ",
"                        . . . - ' w.w.7.9.9.9.9.9.9.9.9.9.9.9.w.9.9.9.9.9.9.9.9.7.w.9.9.9.9.w.' & . . .                         ",
"                        . . . - [ u.w.w.w.w.w.w.w.w.w.w.w.w.w.w.w.w.w.w.w.w.w.w.w.w.w.w.w.w.t.[ - . . .                         ",
"                        . . . - / [ ' ' ] ' ' ' ' ' ' ' ' ] ' ' ] ] ' ' ' ' ' ' ' ' ' ] ] ' [ / - . . .                         ",
"                                - - - - - - - - - - - - - - - - - - - - = - - - - - - - - - - -                                 ",
"                                . . . . . . . . . . . . . . . . . . . . . . . . . . . . . . . .                                 ",
"                                . . . . . . . . . . . . . . . . . . . . . . . . . . . . . . . .                                 ",
"                                . . . . . . . . . . . . . . . . . . . . . . . . . . . . . . . .                                 "
};
