/* XPM */
static char *ce34e5242d824b92bf0150d773be8dc4ZfO9j8QSt7tBWeEy[] = {
/* columns rows colors chars-per-pixel */
"64 51 118 2 ",
"   c #000000",
".  c #080707",
"X  c #0B0B0B",
"o  c #0E100F",
"O  c #111211",
"+  c #181718",
"@  c #1C1C1C",
"#  c #1E3C2B",
"$  c #232222",
"%  c #282728",
"&  c #2C2C2C",
"*  c #302F2F",
"=  c #2A332E",
"-  c #253B2E",
";  c #302F30",
":  c #2F3733",
">  c #2D3C33",
",  c #343534",
"<  c #313A35",
"1  c #3C3C3C",
"2  c #1F5C39",
"3  c #37413B",
"4  c #215D3A",
"5  c #1A673B",
"6  c #196C3C",
"7  c #0F743A",
"8  c #0E7E3D",
"9  c #14743C",
"0  c #137A3F",
"q  c #3E4541",
"w  c #147F41",
"e  c #346649",
"r  c #306A49",
"t  c #38694D",
"y  c #287A4B",
"u  c #434343",
"i  c #4C4C4C",
"p  c #435D4E",
"a  c #504F50",
"s  c #535353",
"d  c #5A5959",
"f  c #4D6758",
"g  c #656565",
"h  c #6E6E6E",
"j  c #747474",
"k  c #767A78",
"l  c #7C7C7C",
"z  c #0E803E",
"x  c #10803F",
"c  c #128141",
"v  c #198446",
"b  c #1D8649",
"n  c #22894E",
"m  c #298D53",
"M  c #2F9058",
"N  c #32925B",
"B  c #3B9762",
"V  c #3D9864",
"C  c #479166",
"Z  c #409A66",
"A  c #459C6A",
"S  c #4A9F6E",
"D  c #4CA070",
"F  c #53A475",
"G  c #5EA97E",
"H  c #65AD83",
"J  c #69AF86",
"K  c #77A68B",
"L  c #6FB28C",
"P  c #76B691",
"I  c #79B894",
"U  c #858585",
"Y  c #878B88",
"T  c #8D8D8D",
"R  c #939393",
"E  c #979C99",
"W  c #83BC9B",
"Q  c #A3A3A3",
"!  c #AEAEAE",
"~  c gray71",
"^  c #BDBCBD",
"/  c #90C4A6",
"(  c #93C5A8",
")  c #9CCAAF",
"_  c #A2CEB5",
"`  c #AED4BE",
"'  c #BDCBC3",
"]  c #B3D6C2",
"[  c #BDD5C7",
"{  c #BCDBC9",
"}  c #C3C3C3",
"|  c #CDCDCD",
" . c #C0DACB",
".. c #DCDBDB",
"X. c #C6E1D1",
"o. c #CAE3D4",
"O. c #CEE6D8",
"+. c #DFE2E0",
"@. c #DDEDE4",
"#. c #E3E3E3",
"$. c #E1EFE7",
"%. c #ECEBEC",
"&. c #E1F0E7",
"*. c #E5F1EA",
"=. c #EAF4EE",
"-. c #F2EFF0",
";. c #EEF6F2",
":. c #F3F3F3",
">. c #F7F6F7",
",. c gray97",
"<. c #F4F9F6",
"1. c #F7FBF9",
"2. c #F8FBF9",
"3. c #F8FDFA",
"4. c #FAFCFB",
"5. c #FBFDFC",
"6. c gray99",
"7. c #FDFEFD",
/* pixels */
"                                                                                                                                ",
"                                                                                                                                ",
"                                                                                                                                ",
"                                                                                                                                ",
"                                                                                                                                ",
"                                                                                                                                ",
"                                                                                                                                ",
"                                                                                                                                ",
"                                                                                                                                ",
"                                                                                                                                ",
"                                                                                                                                ",
"                                                                                                                                ",
"                                                                                                                                ",
"                                                                                                                                ",
"                                                                                                                                ",
"                                                                                                                                ",
"                                                                                                                                ",
"                                                                                                                                ",
"                                                                                                                                ",
"                                                                                                                                ",
"                                                                                                                                ",
"                                                  . X X X X X X X X X X .                                                       ",
"                                                  + , & & , : * & , & , @                                                       ",
"                                          . @ @ @ # 4 4 4 4 2 2 t E E Q g @ @ @ X                                               ",
"                                          X , , , 4 0 w c z c z V <.7.7.! , , , O                                               ",
"                                      . @ i ~ ^ } H 8 w 0 c z z B ;.7.7.#.^ ^ ^ s @ .                                           ",
"                                      X , j 7.7.3.W 8 0 c x w 8 N $.2.7.7.7.7.7.l 1 O                                           ",
"                                    $ u } #.7.{ A m 8 8 z 8 8 8 b V I 7.7.7.7.7.#.| i $ .                                       ",
"                                  . % s %.7.*.( 8 b N m N N M N m 8 S @.;.7.7.7.7.>.g & .                                       ",
"                                    % s :.O.N n 8 I =.*.*.$.*.=.{ b c m W 7.7.7.7.>.d & .                                       ",
"                                . o - p [ ) c n A _ 7.7.7.7.7.7.$.F N 8 G o.o.o.X. .f - o .                                     ",
"                                @ : 6 c b v 8 H <.2.7.7.7.7.7.7.7.2.] v c b b v v v w 9 > $                                     ",
"                                @ < 9 c z c 8 J 7.7.7.7.7.7.7.7.7.7.{ c c 8 V H H H b 0 < $                                     ",
"                                $ , 9 z c z 8 J 7.7.7.7.7.7.7.7.7.7.{ v 8 8 / 7.7.<.Z 7 > $                                     ",
"                                @ 1 K P b z 8 J 7.7.7.7.7.7.7.7.7.7.{ v Z W X.7.7.5.) K q $                                     ",
"                                @ u ..&.m 8 8 J 7.7.7.7.7.7.7.7.7.7.{ c P 7.7.7.7.7.7.%.i $                                     ",
"                                @ u ..2.] I v N J ] 7.7.7.7.7.7.*.P F 8 P 7.7.7.7.7.7.%.i $                                     ",
"                                @ u ..7.7.X.v 0 8 W 5.2.1.1.1.3.o.b 8 8 L 2.7.7.7.7.7.+.i $                                     ",
"                                @ u ..7.7.X.v c c m D D D D D D Z v c 8 m S ` 7.7.1.P C 3 $                                     ",
"                                @ u ..7.;.] v 0 0 0 9 0 7 0 7 9 9 w 9 0 0 9 W ;.=.@.V 7 < $                                     ",
"                                @ u ..*.A m c 5 > > > > < > > > > > > : , > r N N N v 0 > $                                     ",
"                                + 1 ^ ' y 9 9 r d d d 1 , s d d a , 1 d d d e 9 9 6 9 5 = @                                     ",
"                                  X , u < , = k :.:.-.k , } >.>.| 1 h %.:.:.Y = : , < = X                                       ",
"                                    @ % * u h Q 7.7.7.U , | 7.7...1 h 3.7.7.~ h u ; % $ .                                       ",
"                                      . & g >.7.7.7.7.l , | 7.7...1 g 7.7.7.7.2.k & X                                           ",
"                                      X % g 2.7.7.7.7.~ T #.7.7.%.R ! 7.7.7.7.7.k & X                                           ",
"                                      . & g 2.7.7.7.7.7.7.7.7.7.7.7.7.7.7.7.7.7.k & X                                           ",
"                                      . O , U ~ 7.7.7.7.7.7.7.7.7.7.7.7.7.7.} U 1 O X                                           ",
"                                          X % l 2.7.6.2.6.2.6.6.6.7.2.7.2.7.T & X                                               ",
"                                          . X , h h h h j h h h h h h h h j 1 X .                                               ",
"                                              X @ @ @ @ @ @ @ @ @ @ @ @ @ @ X                                                   "
};
