/* XPM */
static char *eb3fa5693fd04b41dfe845cf5dcf5f048NPuOvPF2JL1YwFn[] = {
/* columns rows colors chars-per-pixel */
"64 51 125 2 ",
"   c #000000",
".  c #0B0B0B",
"X  c #141414",
"o  c #1E1415",
"O  c #1C1C1C",
"+  c #21191A",
"@  c #301718",
"#  c #232323",
"$  c #242828",
"%  c #2C2C2C",
"&  c #3E2E2F",
"*  c #2D3131",
"=  c #333434",
"-  c #363C3C",
";  c #393B3B",
":  c #6F1C1F",
">  c #7E1A1C",
",  c #791F22",
"<  c #522627",
"1  c #403131",
"2  c #543435",
"3  c #622526",
"4  c #6C2527",
"5  c #632729",
"6  c #6C2628",
"7  c #7B2023",
"8  c #642F30",
"9  c #6C3637",
"0  c #633D3E",
"q  c #3F4343",
"w  c #454545",
"e  c #4B4B4B",
"r  c #505454",
"t  c #5A5C5C",
"y  c #6D5656",
"u  c #646464",
"i  c #6D6D6D",
"p  c #737373",
"a  c #8E1B1E",
"s  c #97181B",
"d  c #991A1D",
"f  c #851E21",
"g  c #972D30",
"h  c #98383B",
"j  c #D50A0F",
"k  c #E90107",
"l  c #EC030A",
"z  c #E1080E",
"x  c #F30004",
"c  c #FB0005",
"v  c #F60209",
"b  c #FB030A",
"n  c #FB080F",
"m  c #F30A10",
"M  c #FB0B12",
"N  c #FB151B",
"B  c #FB191F",
"V  c #FB1D23",
"C  c #ED2429",
"Z  c #FB2026",
"A  c #FC2228",
"S  c #FC2A2F",
"D  c #FC2D33",
"F  c #FC3137",
"G  c #FC343A",
"H  c #FC383E",
"J  c #FD3D43",
"K  c #865354",
"L  c #9C6F70",
"P  c #FC4045",
"I  c #FC464B",
"U  c #FC4C51",
"Y  c #FC565B",
"T  c #F5595E",
"R  c #FD5E62",
"E  c #FD676B",
"W  c #FD6E72",
"Q  c #FD767A",
"!  c #FD7B7E",
"~  c #FD7E82",
"^  c #868585",
"/  c #878989",
"(  c #8A8A8A",
")  c #959595",
"_  c #999494",
"`  c #9A9A9A",
"'  c #A89899",
"]  c #A3A3A3",
"[  c #ABABAB",
"{  c #B7ABAB",
"}  c #B8A9AA",
"|  c #B6B6B6",
" . c #BEB5B6",
".. c #BDBDBD",
"X. c #FD8083",
"o. c #FD898C",
"O. c #FD999C",
"+. c #FEA2A4",
"@. c #FDABAD",
"#. c #FEAFB1",
"$. c #FEB5B7",
"%. c #C6C6C6",
"&. c #CECECE",
"*. c #D2D2D2",
"=. c #DBDCDC",
"-. c #FEC3C5",
";. c #FFD3D4",
":. c #FED7D8",
">. c #FEDADB",
",. c #E3E3E3",
"<. c #E8E9E9",
"1. c #FFE3E4",
"2. c #FFEAEA",
"3. c #FFEFF0",
"4. c #F3F3F3",
"5. c #FFF1F1",
"6. c #FFF2F2",
"7. c #FFF3F4",
"8. c #FFF6F6",
"9. c #FFF6F7",
"0. c #F9F9F9",
"q. c #FFFBFB",
"w. c #FAFEFE",
"e. c gray99",
"r. c #FFFEFE",
/* pixels */
"                                                                                                                                ",
"                                                                                                                                ",
"                                                                                                                                ",
"                                                                                                                                ",
"                                                                                                                                ",
"                                                                                                                                ",
"                                                                                                                                ",
"                                                                                                                                ",
"                                                                                                                                ",
"                                                                                                                                ",
"                                                                                                                                ",
"                                                                                                                                ",
"                                                                                                                                ",
"                                                                                                                                ",
"                                                                                                                                ",
"                                                                                                                                ",
"                                                                                                                                ",
"                                                                                                                                ",
"                                                                                                                                ",
"                                                                                                                                ",
"                                                                                                                                ",
"                                                                                                                                ",
"                                                    $ $ % $ # $ $ # % # #                                                       ",
"                                            . . . + 3 6 6 6 4 4 6 y i p u O . . .                                               ",
"                                            # * % < l v v v v v v @.w.w.,.w % * #                                               ",
"                                        . O i ( / L m c c b c b b @.r.r.4.) ^ ( u X .                                           ",
"                                        O ; &.r.r.;.N c b c c b b #.r.r.r.r.r.r.| = O                                           ",
"                                    X O i [ <.7.o.R M c c c b c b U ~ 1.r.r.r.r.,.[ u O .                                       ",
"                                    O = | r.r.1.A c c b b b b b b c M -.r.r.r.r.r.r.] = O                                       ",
"                                    O = | r.! I n V +.$.#.#.@.$.@.H b J E 2.r.r.r.r.] * X                                       ",
"                                    + 1 } 2.H c M J 6.r.r.r.r.r.r.E b c B ;.6.3.6.6.' & o                                       ",
"                                . $ > j C D M N @.>.q.r.r.r.r.r.r.>.-.D b D G F D F C j : $                                     ",
"                                . = d c c c c B >.r.r.r.r.r.r.r.r.r.9.H c c b V Z Z N c a * .                                   ",
"                                . * s c c c c B >.r.r.r.r.r.r.r.r.r.6.G c c D :.1.2.! c a * .                                   ",
"                                . = h J B c c B >.r.r.r.r.r.r.r.r.r.6.H b G E 9.r.r.@.J 9 * .                                   ",
"                                . % _ 9.Y c c B >.r.r.r.r.r.r.r.r.r.9.G B :.9.r.r.r.q.9.^ * .                                   ",
"                                . % ` r.O.Y N M o.$.q.r.r.r.r.r.q.-.O.Z Z 1.r.r.r.r.r.r.( % .                                   ",
"                                . = ` r.r.9.P c c F 6.r.r.r.r.r.r.Y c c Z 1.r.r.r.r.r.r.( %                                     ",
"                                . % ` r.r.9.P c c N Q X.X.~ ~ ~ ! S c c M W O.q.r.r.-.~ K % .                                   ",
"                                . % ` r.r.9.J c c v c c c c c c c c c v b c F 6.r.r.o.c f * .                                   ",
"                                . = ` r.O.Y N l a 7 7 , 7 7 , 7 7 7 7 7 7 , g T R R F c a * .                                   ",
"                                . % _ 0.T x v z 2 - - - * = - - - = = - - - 8 k k x v v , * .                                   ",
"                                  . ; u 0 5 3 9  .*.*.] = p *.*.&.u - [ *.*.{ 8 5 5 5 5 @ .                                     ",
"                                    X % * = q t ,.r.r.%.= ( r.r.r.p ; =.r.r.=.r q = * % X                                       ",
"                                      . # ; | <.w.r.r.%.* ^ r.r.q.p ; *.r.r.0.<.[ = + .                                         ",
"                                        O ; &.r.r.r.r.*.t ] r.r.e.) u =.r.r.r.r...= O                                           ",
"                                        # ; &.r.r.r.r.0.4.0.r.r.r.0.4.e.r.r.r.r...; O                                           ",
"                                        X $ ` %.4.r.r.r.r.r.r.r.r.r.w.r.r.r.4.%.( # X                                           ",
"                                            % e ,.r.r.r.w.r.r.r.r.r.r.r.r.r.*.w #                                               ",
"                                            X % ( ] ] ] ] ' ] ] ] ] ] ] ] ] ^ # X                                               ",
"                                                # % % % % % % % % % % % % % #                                                   "
};
